<svg width="54" height="40" viewBox="0 0 54 40" fill="none" xmlns="http://www.w3.org/2000/svg">
<path d="M53 29.9092V24.8556C53 22.5866 51.7 20.8333 50 20.6271V3.09406C50 1.34076 48.7 0 47 0H7C5.3 0 4 1.34076 4 3.09406V20.6271C2.3 20.8333 1 22.5866 1 24.8556V29.9092C0.4 30.5281 0 31.4563 0 32.3845V33.519C0 35.2723 1.3 36.8193 3 37.0256V38.0569C3 38.6757 3.4 39.0883 4 39.0883H6C6.6 39.0883 7 38.6757 7 38.0569V37.0256H47V38.0569C47 38.6757 47.4 39.0883 48 39.0883H50C50.6 39.0883 51 38.6757 51 38.0569V37.0256C52.7 36.8193 54 35.2723 54 33.519V32.3845C54 31.4563 53.6 30.5281 53 29.9092ZM6 3.09406C6 2.47525 6.4 2.06271 7 2.06271H47C47.6 2.06271 48 2.47525 48 3.09406V20.6271H46V16.1922C46 14.0264 44.3 12.3762 42.3 12.3762H33.8C31.7 12.3762 30.1 14.1295 30.1 16.1922V20.6271H24.1V16.1922C24.1 14.0264 22.4 12.3762 20.4 12.3762H11.9C9.8 12.3762 8.2 14.1295 8.2 16.1922V20.6271H6.2V3.09406H6ZM44 20.6271H32V16.1922C32 15.1609 32.8 14.4389 33.7 14.4389H42.2C43.2 14.4389 43.9 15.264 43.9 16.1922V20.6271H44ZM22 20.6271H10V16.1922C10 15.1609 10.8 14.4389 11.7 14.4389H20.2C21.2 14.4389 21.9 15.264 21.9 16.1922V20.6271H22ZM4.4 22.6898H5H9H23H31H45H49H49.6C50.2 22.6898 51 23.618 51 24.8556V28.8779C50.9 28.8779 50.7 28.8779 50.6 28.8779H3.4C3.2 28.8779 3.1 28.8779 3 28.8779V24.8556C3 23.618 3.7 22.6898 4.4 22.6898ZM52 33.6221C52 34.4472 51.3 35.066 50.6 35.066H3.4C2.7 35.066 2 34.3441 2 33.6221V32.4876C2 31.6625 2.7 30.9406 3.4 30.9406H50.5C51.3 30.9406 51.9 31.6625 51.9 32.3845V33.6221H52Z" fill="#EC0303"/>
</svg>
